<svg xmlns="http://www.w3.org/2000/svg" width="281" height="41" viewBox="0 0 281 41">
  <g id="Group_40" data-name="Group 40" transform="translate(-143 -32)">
    <text id="Foundry" transform="translate(330 59)" font-size="26" font-family="Roboto-Regular, Roboto"><tspan x="0" y="0">Foundry</tspan></text>
    <g id="Group_3" data-name="Group 3" transform="translate(-145 3)">
      <path id="Path_1" data-name="Path 1" d="M288,52.634,297.954,29l13.522,12.723L299.123,53.345Z" fill="#a5a002"/>
      <path id="Path_2" data-name="Path 2" d="M288,120.328l14.481-2.447-3.357,3.158Z" transform="translate(0 -67.694)" opacity="0.2"/>
      <path id="Path_3" data-name="Path 3" d="M311.476,147.228,288,130.4s20.442,1.3,23.476,1.5Z" transform="translate(0 -77.228)" fill="#bfbe01"/>
      <path id="Path_4" data-name="Path 4" d="M409.96,52.634,400.006,29,386.483,41.723l12.353,11.622Z" transform="translate(-75.007)" fill="#d61203"/>
      <path id="Path_5" data-name="Path 5" d="M438.7,120.328l-14.481-2.447,3.357,3.158Z" transform="translate(-103.75 -67.694)" opacity="0.2"/>
      <path id="Path_6" data-name="Path 6" d="M386.483,147.228,409.96,130.4s-20.442,1.3-23.477,1.5Z" transform="translate(-75.007 -77.228)" fill="#ed2001"/>
    </g>
    <g id="Group_4" data-name="Group 4" transform="translate(203.634 39.933)">
      <path id="Path_7" data-name="Path 7" d="M285.314,242.238l.112.742.148-.8,2.733-10.278h1.15l2.708,10.19.2,1.052.161-.94,2.313-10.3h1.409L292.97,245.28h-1.15l-2.906-10.636-.062-.322-.049.334-2.857,10.623h-1.163L281.53,231.9h1.4Z" transform="translate(-281.53 -226.284)" fill="#333"/>
      <path id="Path_8" data-name="Path 8" d="M316.314,245.339a4.626,4.626,0,0,1-3.7-1.546,6.624,6.624,0,0,1-1.361-4.4v-1.633a7.42,7.42,0,0,1,1.286-4.619,4.213,4.213,0,0,1,3.537-1.676,4.011,4.011,0,0,1,3.321,1.422,6.977,6.977,0,0,1,1.168,4.354v1.286h-7.952v.754a5.62,5.62,0,0,0,.983,3.55,3.329,3.329,0,0,0,2.777,1.249,3.993,3.993,0,0,0,3.2-1.446l.717.915A4.608,4.608,0,0,1,316.314,245.339Zm-.235-12.59a2.949,2.949,0,0,0-2.492,1.144,5.846,5.846,0,0,0-.958,3.346H319.2v-.359Q319.1,232.75,316.078,232.749Z" transform="translate(-294.411 -226.096)" fill="#333"/>
      <path id="Path_9" data-name="Path 9" d="M341.979,234.927a8.431,8.431,0,0,1-1.082,4.7,3.628,3.628,0,0,1-3.221,1.608,3.746,3.746,0,0,1-3.5-2.041l-.062,1.793H332.84v-19H334.2v7.482a4,4,0,0,1,6.678-.588,8.172,8.172,0,0,1,1.1,4.557Zm-1.372-1.249a7.365,7.365,0,0,0-.755-3.772,2.679,2.679,0,0,0-2.473-1.225,3.219,3.219,0,0,0-3.178,2.412v6.629a3.53,3.53,0,0,0,1.236,1.626,3.328,3.328,0,0,0,1.966.575,2.675,2.675,0,0,0,2.418-1.193,7.055,7.055,0,0,0,.785-3.716Z" transform="translate(-303.764 -221.991)" fill="#333"/>
      <path id="Path_10" data-name="Path 10" d="M358.537,243.471a2.319,2.319,0,0,0,1.744-.674,2.858,2.858,0,0,0,.717-1.923h2.065a4.553,4.553,0,0,1-1.367,3.2,4.339,4.339,0,0,1-3.16,1.268,4.655,4.655,0,0,1-3.79-1.565,7.124,7.124,0,0,1-1.305-4.656v-1.472a7.093,7.093,0,0,1,1.3-4.607,4.62,4.62,0,0,1,3.784-1.576,4.229,4.229,0,0,1,3.259,1.3,5.281,5.281,0,0,1,1.28,3.549H361a3.637,3.637,0,0,0-.711-2.226,2.2,2.2,0,0,0-1.762-.742,2.508,2.508,0,0,0-2.164.958,5.532,5.532,0,0,0-.73,3.148v1.707a5.946,5.946,0,0,0,.7,3.339A2.526,2.526,0,0,0,358.537,243.471Z" transform="translate(-312.692 -226.096)" fill="#333"/>
      <path id="Path_11" data-name="Path 11" d="M374.067,237.782a7,7,0,0,1,1.416-4.619,4.627,4.627,0,0,1,3.741-1.7,4.678,4.678,0,0,1,3.741,1.657,6.867,6.867,0,0,1,1.453,4.514v1.41a6.972,6.972,0,0,1-1.41,4.6,5.033,5.033,0,0,1-7.489.049,6.828,6.828,0,0,1-1.453-4.452Zm2.189,1.261a5.671,5.671,0,0,0,.81,3.246,2.52,2.52,0,0,0,2.183,1.181q2.894,0,2.981-4.18v-1.509a5.671,5.671,0,0,0-.817-3.246,2.528,2.528,0,0,0-2.188-1.193,2.493,2.493,0,0,0-2.158,1.193,5.682,5.682,0,0,0-.81,3.234Z" transform="translate(-321.629 -226.096)" fill="#333"/>
      <path id="Path_12" data-name="Path 12" d="M404.108,244.106a3.758,3.758,0,0,1-3.178,1.422,3.2,3.2,0,0,1-2.745-1.255,6.15,6.15,0,0,1-.94-3.654V231.9h2.177v8.558q0,3.129,1.88,3.129a2.742,2.742,0,0,0,2.745-1.781V231.9h2.189V245.28h-2.078Z" transform="translate(-331.673 -226.284)" fill="#333"/>
      <path id="Path_13" data-name="Path 13" d="M428.6,239.044a8,8,0,0,1-1.144,4.737,3.776,3.776,0,0,1-3.234,1.558,3.588,3.588,0,0,1-3.1-1.521v6.419h-2.177V231.71h1.979l.111,1.484a3.522,3.522,0,0,1,3.154-1.731,3.766,3.766,0,0,1,3.29,1.533,8.112,8.112,0,0,1,1.125,4.588Zm-2.177-1.25a6.244,6.244,0,0,0-.692-3.32,2.456,2.456,0,0,0-2.226-1.07,2.576,2.576,0,0,0-2.387,1.571v6.963a2.58,2.58,0,0,0,2.412,1.533,2.421,2.421,0,0,0,2.183-1.07,6.142,6.142,0,0,0,.711-3.271Z" transform="translate(-341.073 -226.096)" fill="#333"/>
      <path id="Path_14" data-name="Path 14" d="M445.433,245.339a4.879,4.879,0,0,1-3.833-1.49,6.439,6.439,0,0,1-1.361-4.372v-1.62a7.541,7.541,0,0,1,1.3-4.693,4.33,4.33,0,0,1,3.643-1.7,4.173,4.173,0,0,1,3.512,1.5,7.7,7.7,0,0,1,1.187,4.663v1.434h-7.47v.309a4.881,4.881,0,0,0,.81,3.129,2.854,2.854,0,0,0,2.331.977,3.774,3.774,0,0,0,1.7-.365,4.213,4.213,0,0,0,1.379-1.157l1.137,1.386A4.966,4.966,0,0,1,445.433,245.339Zm-.247-12a2.3,2.3,0,0,0-2.016.933,5.541,5.541,0,0,0-.742,2.9H447.7v-.3a5.107,5.107,0,0,0-.687-2.721A2.115,2.115,0,0,0,445.186,233.343Z" transform="translate(-350.304 -226.096)" fill="#333"/>
      <path id="Path_15" data-name="Path 15" d="M467.417,233.763a5.384,5.384,0,0,0-.99-.087,2.4,2.4,0,0,0-2.349,1.843v9.572h-2.189V231.71h2.127l.037,1.36a2.724,2.724,0,0,1,2.486-1.607,1.923,1.923,0,0,1,.865.173Z" transform="translate(-359.686 -226.096)" fill="#333"/>
      <path id="Path_16" data-name="Path 16" d="M481.679,241.665a1.615,1.615,0,0,0-.532-1.212,7.862,7.862,0,0,0-2.053-1.187,13.453,13.453,0,0,1-2.492-1.249,3.551,3.551,0,0,1-1.082-1.181,3.253,3.253,0,0,1-.359-1.576,3.51,3.51,0,0,1,1.193-2.715,4.873,4.873,0,0,1,6.19.056,3.865,3.865,0,0,1,1.187,2.919h-2.177a2.152,2.152,0,0,0-.606-1.54,2.042,2.042,0,0,0-1.546-.637,2.174,2.174,0,0,0-1.515.5,1.718,1.718,0,0,0-.55,1.337,1.461,1.461,0,0,0,.4,1.073,7.161,7.161,0,0,0,1.936,1.072,9.724,9.724,0,0,1,3.314,1.864,3.191,3.191,0,0,1,.878,2.31,3.523,3.523,0,0,1-1.2,2.794,4.716,4.716,0,0,1-3.215,1.047,4.8,4.8,0,0,1-3.389-1.2,3.961,3.961,0,0,1-1.3-3.043h2.2a2.262,2.262,0,0,0,2.486,2.375,2.48,2.48,0,0,0,1.657-.488A1.65,1.65,0,0,0,481.679,241.665Z" transform="translate(-365.266 -226.096)" fill="#333"/>
    </g>
  </g>
</svg>
